<svg width="43" height="43" viewBox="0 0 43 43" fill="none" xmlns="http://www.w3.org/2000/svg">
<path d="M18.6333 22.9331L24.3669 22.9318C30.0876 22.9318 35.0103 19.5714 37.3103 14.7253C36.8137 13.5664 36.182 12.4815 35.4544 11.4706C34.1735 16.4048 29.6959 20.065 24.3669 20.065L18.6333 20.0667C13.2793 20.0667 8.41948 22.1875 4.81651 25.618C5.0758 26.6651 5.42539 27.6756 5.86485 28.6371C9.01289 25.1437 13.5606 22.9331 18.6333 22.9331Z" fill="#A8F600"/>
<path d="M38.4205 18.4933C35.3056 22.9077 30.1774 25.7999 24.3656 25.7999H18.6319C14.0563 25.7999 9.99151 27.9512 7.36719 31.2914C7.93006 32.102 8.55829 32.8631 9.24847 33.5644C11.3241 30.6082 14.7538 28.6667 18.6319 28.6667H24.3656C29.9465 28.6667 34.9982 26.3722 38.6385 22.6811C38.6652 22.2894 38.6987 21.8989 38.6987 21.4999C38.6987 20.4722 38.5925 19.4716 38.4205 18.4933Z" fill="#A8F600"/>
<path d="M18.634 14.3334C13.4477 14.3334 8.62486 15.8844 4.57512 18.5284C4.4057 19.4959 4.30078 20.4841 4.30078 21.5002C4.30078 21.7466 4.32744 21.9874 4.33862 22.2307C8.26194 19.09 13.2284 17.2002 18.634 17.2002L24.3676 17.1989C29.0748 17.1989 32.9057 13.3955 32.9616 8.70079C32.0839 7.91392 31.1281 7.21431 30.1008 6.62048V8.59762C30.1008 11.7598 27.5298 14.3321 24.3676 14.3321L18.634 14.3334Z" fill="#A8F600"/>
<path d="M18.6334 11.4664L24.3671 11.4655C25.9473 11.4655 27.2334 10.179 27.2334 8.59742V5.29932C25.4378 4.66378 23.5148 4.3 21.5003 4.3C14.4792 4.3 8.44887 8.51443 5.77728 14.5473C9.6486 12.5917 14.0075 11.4664 18.6334 11.4664Z" fill="#A8F600"/>
<path d="M24.3666 31.5332H18.6329C15.6264 31.5332 12.9797 33.0868 11.4412 35.4316C14.2714 37.4792 17.7403 38.7 21.4997 38.7C28.9925 38.7 35.3475 33.9016 37.7056 27.2164C33.9431 29.9224 29.3438 31.5332 24.3666 31.5332Z" fill="#A8F600"/>
</svg>
