<svg width="22" height="20" viewBox="0 0 22 20" fill="none" xmlns="http://www.w3.org/2000/svg">
<path d="M9.26306 20C9.25998 20 9.25639 20 9.25331 20C9.12607 19.9974 9.00602 19.9422 8.91983 19.8474L0.123148 10.1372C-0.0276877 9.97052 -0.0415399 9.71948 0.0903129 9.53668C0.222166 9.35439 0.462271 9.29189 0.664411 9.38772L8.71564 13.2147C8.78336 13.247 8.86339 13.2314 8.91521 13.1767L21.1965 0.146246C21.3627 -0.0303133 21.6346 -0.0495837 21.8234 0.102496C22.0122 0.254577 22.0559 0.527488 21.924 0.732171L9.70735 19.7307C9.68991 19.7583 9.66939 19.7833 9.64682 19.8068L9.59295 19.8615C9.50521 19.95 9.38619 20 9.26306 20Z" fill="#0A0C00"/>
</svg>
