<svg width="119" height="43" viewBox="0 0 119 43" fill="none" xmlns="http://www.w3.org/2000/svg">
<path d="M54.4844 32H49.7344L43.1719 13.9531H48.4531L53.2656 28.3281L57.9375 13.9531H61.5938L54.4844 32ZM66.8369 23.4375C67.4827 23.5833 68.1285 23.6979 68.7744 23.7812C69.4202 23.8646 70.0713 23.9062 70.7275 23.9062C71.415 23.9062 72.0504 23.8438 72.6338 23.7188C73.2275 23.5833 73.7379 23.3646 74.165 23.0625C74.6025 22.75 74.9463 22.3385 75.1963 21.8281C75.4463 21.3177 75.5713 20.6823 75.5713 19.9219C75.5713 19.3073 75.4879 18.7448 75.3213 18.2344C75.1546 17.724 74.9046 17.2865 74.5713 16.9219C74.2483 16.5573 73.8473 16.276 73.3681 16.0781C72.889 15.8698 72.3317 15.7656 71.6963 15.7656C71.1025 15.7656 70.566 15.875 70.0869 16.0938C69.6181 16.3125 69.2015 16.6094 68.8369 16.9844C68.4827 17.349 68.1754 17.776 67.915 18.2656C67.665 18.7552 67.4567 19.2656 67.29 19.7969C67.1233 20.3281 67.0035 20.8646 66.9306 21.4062C66.8577 21.9479 66.8213 22.4583 66.8213 22.9375C66.8213 23.0208 66.8213 23.1042 66.8213 23.1875C66.8213 23.2708 66.8265 23.3542 66.8369 23.4375ZM79.8525 19.875C79.8525 20.6146 79.7327 21.276 79.4931 21.8594C79.2535 22.4323 78.9254 22.9375 78.5088 23.375C78.1025 23.8125 77.6285 24.1823 77.0869 24.4844C76.5452 24.7865 75.9671 25.0365 75.3525 25.2344C74.7379 25.4219 74.1025 25.5573 73.4463 25.6406C72.8004 25.724 72.1702 25.7656 71.5556 25.7656C70.7744 25.7656 70.0035 25.7135 69.2431 25.6094C68.4827 25.4948 67.7327 25.3177 66.9931 25.0781C67.1077 25.7656 67.29 26.4219 67.54 27.0469C67.79 27.6615 68.1233 28.2031 68.54 28.6719C68.9567 29.1302 69.4671 29.4948 70.0713 29.7656C70.6858 30.0365 71.4098 30.1719 72.2431 30.1719C72.7952 30.1719 73.3213 30.0885 73.8213 29.9219C74.3213 29.7552 74.7796 29.5208 75.1963 29.2188C75.6129 28.9167 75.9775 28.5573 76.29 28.1406C76.6129 27.724 76.8733 27.2604 77.0713 26.75L79.3525 27.5938C79.0088 28.4167 78.5348 29.1302 77.9306 29.7344C77.3369 30.3281 76.6598 30.8229 75.8994 31.2188C75.1494 31.6042 74.3473 31.8906 73.4931 32.0781C72.6494 32.2656 71.8108 32.3594 70.9775 32.3594C69.6025 32.3594 68.3317 32.1302 67.165 31.6719C65.9983 31.2031 64.9931 30.5521 64.1494 29.7188C63.3056 28.8854 62.6442 27.8906 62.165 26.7344C61.6858 25.5781 61.4463 24.3125 61.4463 22.9375C61.4463 21.5625 61.6858 20.2969 62.165 19.1406C62.6442 17.9844 63.3056 16.9896 64.1494 16.1562C64.9931 15.3229 65.9983 14.6771 67.165 14.2188C68.3317 13.75 69.6025 13.5156 70.9775 13.5156C71.6442 13.5156 72.3265 13.5625 73.0244 13.6562C73.7223 13.75 74.3994 13.901 75.0556 14.1094C75.7119 14.3073 76.3317 14.5677 76.915 14.8906C77.4983 15.2135 78.0035 15.6146 78.4306 16.0938C78.8681 16.5625 79.2119 17.1094 79.4619 17.7344C79.7223 18.3594 79.8525 19.0729 79.8525 19.875ZM97.5488 32H92.2675L87.8456 25.6719L83.33 32H79.6738L86.4706 23.6875L79.6738 13.9531H84.955L89.2363 20.0781L93.8925 13.9531H97.5488L90.6113 22.0469L97.5488 32ZM116.526 32H111.245V29.8438C110.62 30.6979 109.865 31.3333 108.979 31.75C108.104 32.1562 107.141 32.3594 106.089 32.3594C104.714 32.3594 103.485 32.1146 102.401 31.625C101.318 31.1354 100.401 30.4688 99.6512 29.625C98.9012 28.7708 98.3283 27.7708 97.9325 26.625C97.5367 25.4792 97.3387 24.25 97.3387 22.9375C97.3387 21.625 97.5367 20.3958 97.9325 19.25C98.3283 18.1042 98.9012 17.1094 99.6512 16.2656C100.401 15.4115 101.318 14.7396 102.401 14.25C103.485 13.7604 104.714 13.5156 106.089 13.5156C106.787 13.5156 107.448 13.6198 108.073 13.8281C108.709 14.0365 109.287 14.3333 109.807 14.7188C110.339 15.0938 110.802 15.5521 111.198 16.0938C111.604 16.625 111.922 17.2188 112.151 17.875L114.495 13.9531H116.526V32ZM111.214 22.9375C111.214 22.4688 111.188 21.974 111.136 21.4531C111.094 20.9323 111.016 20.4167 110.901 19.9062C110.787 19.3958 110.625 18.9115 110.417 18.4531C110.219 17.9844 109.959 17.5729 109.636 17.2188C109.323 16.8542 108.943 16.5677 108.495 16.3594C108.047 16.151 107.526 16.0469 106.932 16.0469C106.339 16.0469 105.823 16.1562 105.386 16.375C104.948 16.5833 104.573 16.8698 104.261 17.2344C103.948 17.5885 103.688 18 103.479 18.4688C103.281 18.9375 103.125 19.4271 103.011 19.9375C102.896 20.4479 102.813 20.9635 102.761 21.4844C102.719 21.9948 102.698 22.4792 102.698 22.9375C102.698 23.3958 102.719 23.8854 102.761 24.4062C102.813 24.9271 102.896 25.4427 103.011 25.9531C103.125 26.4635 103.281 26.9531 103.479 27.4219C103.688 27.8906 103.948 28.3073 104.261 28.6719C104.573 29.026 104.948 29.3125 105.386 29.5312C105.823 29.7396 106.339 29.8438 106.932 29.8438C107.474 29.8438 107.953 29.7344 108.37 29.5156C108.797 29.2865 109.167 28.9844 109.479 28.6094C109.802 28.2344 110.073 27.8073 110.292 27.3281C110.511 26.849 110.688 26.3542 110.823 25.8438C110.959 25.3333 111.057 24.8281 111.12 24.3281C111.182 23.8177 111.214 23.3542 111.214 22.9375Z" fill="#0C0C0C"/>
<path d="M18.6333 22.9331L24.3669 22.9318C30.0876 22.9318 35.0103 19.5714 37.3103 14.7253C36.8137 13.5664 36.182 12.4815 35.4544 11.4706C34.1735 16.4048 29.6959 20.065 24.3669 20.065L18.6333 20.0667C13.2793 20.0667 8.41948 22.1875 4.81651 25.618C5.0758 26.6651 5.42539 27.6756 5.86485 28.6371C9.01289 25.1437 13.5606 22.9331 18.6333 22.9331Z" fill="#A8F600"/>
<path d="M38.4205 18.4933C35.3056 22.9077 30.1774 25.7999 24.3656 25.7999H18.6319C14.0563 25.7999 9.99151 27.9512 7.36719 31.2914C7.93006 32.102 8.55829 32.8631 9.24847 33.5644C11.3241 30.6082 14.7538 28.6667 18.6319 28.6667H24.3656C29.9465 28.6667 34.9982 26.3722 38.6385 22.6811C38.6652 22.2894 38.6987 21.8989 38.6987 21.4999C38.6987 20.4722 38.5925 19.4716 38.4205 18.4933Z" fill="#A8F600"/>
<path d="M18.634 14.3334C13.4477 14.3334 8.62486 15.8844 4.57512 18.5284C4.4057 19.4959 4.30078 20.4841 4.30078 21.5002C4.30078 21.7466 4.32744 21.9874 4.33862 22.2307C8.26194 19.09 13.2284 17.2002 18.634 17.2002L24.3676 17.1989C29.0748 17.1989 32.9057 13.3955 32.9616 8.70079C32.0839 7.91392 31.1281 7.21431 30.1008 6.62048V8.59762C30.1008 11.7598 27.5298 14.3321 24.3676 14.3321L18.634 14.3334Z" fill="#A8F600"/>
<path d="M18.6334 11.4664L24.3671 11.4655C25.9473 11.4655 27.2334 10.179 27.2334 8.59742V5.29932C25.4378 4.66378 23.5148 4.3 21.5003 4.3C14.4792 4.3 8.44887 8.51443 5.77728 14.5473C9.6486 12.5917 14.0075 11.4664 18.6334 11.4664Z" fill="#A8F600"/>
<path d="M24.3666 31.5332H18.6329C15.6264 31.5332 12.9797 33.0868 11.4412 35.4316C14.2714 37.4792 17.7403 38.7 21.4997 38.7C28.9925 38.7 35.3475 33.9016 37.7056 27.2164C33.9431 29.9224 29.3438 31.5332 24.3666 31.5332Z" fill="#A8F600"/>
</svg>
